<?xml version="1.0" encoding="utf-8"?>
<!-- Generator: Adobe Illustrator 27.1.1, SVG Export Plug-In . SVG Version: 6.00 Build 0)  -->
<svg version="1.1" id="Layer_1" xmlns="http://www.w3.org/2000/svg" xmlns:xlink="http://www.w3.org/1999/xlink" x="0px" y="0px"
	 viewBox="0 0 1584 396" style="enable-background:new 0 0 1584 396;" xml:space="preserve">
<style type="text/css">
	.st0{fill:url(#SVGID_1_);}
	.st1{fill:none;stroke:#37E0D6;stroke-width:1.4;stroke-opacity:0.16;}
	.st2{fill:none;stroke:#37E0D6;stroke-width:1.2;stroke-opacity:0.13;}
	.st3{fill:url(#SVGID_00000092436598521739145800000000442831372394544283_);}
	.st4{fill:#FFFFFF;}
	.st5{font-family:'SegoeUI-Light';}
	.st6{font-size:70px;}
	.st7{fill:url(#SVGID_00000091001181359494027780000012497810367226067896_);}
	.st8{fill:#8FE6DD;}
	.st9{font-family:'SegoeUI-Semibold';}
	.st10{font-size:33px;}
	.st11{fill:#CFE0EE;}
	.st12{font-family:'SegoeUI';}
	.st13{font-size:22px;}
	.st14{fill:#7F9BC0;}
	.st15{font-size:16px;}
	.st16{letter-spacing:2;}
	.st17{fill:none;stroke:#6FE9FF;stroke-width:1.6;stroke-opacity:0.35;}
	.st18{fill:url(#SVGID_00000070826434200563146830000001475183808020214931_);}
	.st19{fill:url(#SVGID_00000001646128625778309560000018367088607801207456_);stroke:#6FE9FF;stroke-width:2;stroke-opacity:0.7;}
	.st20{fill:#CDFAF2;}
	.st21{font-family:'SegoeUI-Bold';}
	.st22{font-size:12.5px;}
	.st23{fill:#9FB6D6;}
	.st24{font-size:12px;}
	.st25{fill:#0D2342;fill-opacity:0.85;stroke:#6FE9FF;stroke-opacity:0.3;}
	.st26{fill:#2FD6C0;}
	.st27{fill:#EAF6FF;}
	.st28{font-size:20px;}
	.st29{fill:#9B6CFF;}
	.st30{fill:#7A3FBF;}
	.st31{font-size:11px;}
	.st32{fill:#1F9CF0;}
	.st33{font-family:'Consolas-Bold';}
	.st34{fill:#3A2F10;fill-opacity:0.7;stroke:#FFD34E;stroke-opacity:0.7;}
	.st35{fill:#61DAFB;}
	.st36{fill:none;stroke:#61DAFB;stroke-width:2;}
	.st37{fill:#DD0031;}
	.st38{font-size:13px;}
	.st39{fill:#08312F;fill-opacity:0.85;stroke:#2FD6C0;stroke-opacity:0.55;}
	.st40{fill:#D97A4E;}
	.st41{fill:#10A37F;}
	.st42{font-size:14px;}
	.st43{fill:#2D2F36;}
	.st44{fill:none;stroke:#FFFFFF;stroke-width:2;}
	.st45{opacity:0.85;fill:#BFF3EA;enable-background:new    ;}
	.st46{opacity:0.7;fill:#BFF3EA;enable-background:new    ;}
	.st47{opacity:0.6;fill:#BFF3EA;enable-background:new    ;}
	.st48{enable-background:new    ;}
	.st49{fill:#FFD34E;}
	.st50{font-family:'MyriadPro-Regular';}
	.st51{font-size:13.5px;}
	.st52{font-family:'SegoeUI-BoldItalic';}
	.st53{fill:#091C36;fill-opacity:0.82;stroke:#6FE9FF;stroke-opacity:0.3;}
	.st54{fill:none;stroke:#06231F;stroke-width:1.6;}
	.st55{fill:#DBE9F6;}
	.st56{font-size:17px;}
	.st57{fill:#6FE9FF;}
	.st58{fill:none;stroke:#06231F;stroke-width:1.5;}
	.st59{fill:none;stroke:#3A2F10;stroke-width:1.4;}
</style>
<linearGradient id="SVGID_1_" gradientUnits="userSpaceOnUse" x1="741.5316" y1="248.3737" x2="742.5316" y2="247.3737" gradientTransform="matrix(1584 0 0 -396 -1174586 98356)">
	<stop  offset="0" style="stop-color:#070F24"/>
	<stop  offset="0.5" style="stop-color:#0F2A4C"/>
	<stop  offset="1" style="stop-color:#0C3A3A"/>
</linearGradient>
<rect class="st0" width="1584" height="396"/>
<g>
	<line class="st1" x1="1130" y1="212" x2="-260" y2="396"/>
	<line class="st1" x1="1130" y1="212" x2="160" y2="396"/>
	<line class="st1" x1="1130" y1="212" x2="520" y2="396"/>
	<line class="st1" x1="1130" y1="212" x2="860" y2="396"/>
	<line class="st1" x1="1130" y1="212" x2="1130" y2="396"/>
	<line class="st1" x1="1130" y1="212" x2="1400" y2="396"/>
	<line class="st1" x1="1130" y1="212" x2="1700" y2="396"/>
	<line class="st1" x1="1130" y1="212" x2="1980" y2="396"/>
</g>
<g>
	<line class="st2" x1="0" y1="250" x2="1584" y2="250"/>
	<line class="st2" x1="0" y1="286" x2="1584" y2="286"/>
	<line class="st2" x1="0" y1="332" x2="1584" y2="332"/>
	<line class="st2" x1="0" y1="392" x2="1584" y2="392"/>
</g>
<radialGradient id="SVGID_00000082360253918613691050000006742159868399069347_" cx="742.2516" cy="248.3737" r="0.8" gradientTransform="matrix(1584 0 0 -396 -1174586 98356)" gradientUnits="userSpaceOnUse">
	<stop  offset="0" style="stop-color:#3FE0D0;stop-opacity:0.3"/>
	<stop  offset="1" style="stop-color:#3FE0D0;stop-opacity:0"/>
</radialGradient>
<rect style="fill:url(#SVGID_00000082360253918613691050000006742159868399069347_);" width="1584" height="396"/>
<text transform="matrix(1 0 0 1 96 140)" class="st4 st5 st6">David Silverlight</text>
<linearGradient id="SVGID_00000043442468405722525400000014436513679757713308_" gradientUnits="userSpaceOnUse" x1="732.725" y1="277.1" x2="733.725" y2="277.1" gradientTransform="matrix(80 0 0 -5 -58518 1546)">
	<stop  offset="0" style="stop-color:#6FE9D6"/>
	<stop  offset="1" style="stop-color:#BFE0FF"/>
</linearGradient>
<path style="fill:url(#SVGID_00000043442468405722525400000014436513679757713308_);" d="M102.5,158h75c1.4,0,2.5,1.1,2.5,2.5l0,0
	c0,1.4-1.1,2.5-2.5,2.5h-75c-1.4,0-2.5-1.1-2.5-2.5l0,0C100,159.1,101.1,158,102.5,158z"/>
<text transform="matrix(1 0 0 1 96 204)" class="st8 st9 st10" style="font-size:30px;">Cross-Platform .NET Application Developer</text>
<text transform="matrix(1 0 0 1 96 248)" class="st11 st12 st13">Building what&apos;s next in cross-platform apps →</text>
<text transform="matrix(1 0 0 1 96 280)" class="st14 st9 st15 st16">MOBILE · FRONT-END · AI-AUGMENTED</text>
<g>
	<line class="st17" x1="1130" y1="180" x2="820" y2="120"/>
	<line class="st17" x1="1130" y1="180" x2="775" y2="176"/>
	<line class="st17" x1="1130" y1="180" x2="830" y2="232"/>
	<line class="st17" x1="1130" y1="180" x2="840" y2="286"/>
	<line class="st17" x1="1130" y1="180" x2="1190" y2="80"/>
	<line class="st17" x1="1130" y1="180" x2="1350" y2="80"/>
	<line class="st17" x1="1130" y1="180" x2="1420" y2="176"/>
	<line class="st17" x1="1130" y1="180" x2="1420" y2="236"/>
	<line class="st17" x1="1130" y1="180" x2="1330" y2="300"/>
</g>
<radialGradient id="SVGID_00000021084970298895529030000017417214110387870595_" cx="736.8788" cy="248.6212" r="0.5" gradientTransform="matrix(132 0 0 -132 -96138 32998)" gradientUnits="userSpaceOnUse">
	<stop  offset="0" style="stop-color:#6FE9FF;stop-opacity:0.7"/>
	<stop  offset="1" style="stop-color:#6FE9FF;stop-opacity:0"/>
</radialGradient>
<circle style="fill:url(#SVGID_00000021084970298895529030000017417214110387870595_);" cx="1130" cy="180" r="66"/>
<linearGradient id="SVGID_00000103983707293675072720000013162397063697205684_" gradientUnits="userSpaceOnUse" x1="732.725" y1="249.85" x2="733.725" y2="248.85" gradientTransform="matrix(80 0 0 -80 -57528 20128)">
	<stop  offset="0" style="stop-color:#1D7A86"/>
	<stop  offset="1" style="stop-color:#163E7A"/>
</linearGradient>
<circle style="fill:url(#SVGID_00000103983707293675072720000013162397063697205684_);stroke:#6FE9FF;stroke-width:2;stroke-opacity:0.7;" cx="1130" cy="180" r="40"/>
<path class="st20" d="M1130,152l9,21l21,7l-21,7l-9,21l-9-21l-21-7l21-7L1130,152z"/>
<text transform="matrix(1 0 0 1 1045.1146 246)" class="st8 st21 st22 st16">FUTURE-READY STACK</text>
<g>
	<text transform="matrix(1 0 0 1 728 86)" class="st23 st21 st24 st16">BUILD</text>
	<text transform="matrix(1 0 0 1 1300 138)" class="st8 st21 st24 st16">AI COPILOTS</text>
</g>
<g>
	<g transform="translate(745,98)">
		<path class="st25" d="M22,0h106c12.2,0,22,9.8,22,22l0,0c0,12.2-9.8,22-22,22H22C9.8,44,0,34.2,0,22l0,0C0,9.8,9.8,0,22,0z"/>
		<circle class="st26" cx="24" cy="22" r="9"/>
		<text transform="matrix(1 0 0 1 44 29)" class="st27 st21 st28">.NET MAUI</text>
	</g>
	<g transform="translate(740,154)">
		<path class="st25" d="M22,0h26c12.2,0,22,9.8,22,22l0,0c0,12.2-9.8,22-22,22H22C9.8,44,0,34.2,0,22l0,0C0,9.8,9.8,0,22,0z"/>
		<circle class="st29" cx="22" cy="22" r="9"/>
		<text transform="matrix(1 0 0 1 38 29)" class="st27 st21 st28">C#</text>
	</g>
	<g transform="translate(732,210)">
		<path class="st25" d="M22,0h152c12.2,0,22,9.8,22,22l0,0c0,12.2-9.8,22-22,22H22C9.8,44,0,34.2,0,22l0,0C0,9.8,9.8,0,22,0z"/>
		<circle class="st30" cx="25" cy="22" r="14"/>
		<text transform="matrix(1 0 0 1 18.3022 27)" class="st4 st21 st31">VS</text>
		<text transform="matrix(1 0 0 1 47 29)" class="st27 st21 st28">Visual Studio</text>
	</g>
	<g transform="translate(761,264)">
		<path class="st25" d="M22,0h114c12.2,0,22,9.8,22,22l0,0c0,12.2-9.8,22-22,22H22C9.8,44,0,34.2,0,22l0,0C0,9.8,9.8,0,22,0z"/>
		<circle class="st32" cx="25" cy="22" r="14"/>
		<text transform="matrix(1 0 0 1 15.9282 27)" class="st4 st33 st31">&lt;/&gt;</text>
		<text transform="matrix(1 0 0 1 47 29)" class="st27 st21 st28">VS Code</text>
	</g>
	<g transform="translate(1126,58)">
		<path class="st34" d="M22,0h84c12.2,0,22,9.8,22,22l0,0c0,12.2-9.8,22-22,22H22C9.8,44,0,34.2,0,22l0,0C0,9.8,9.8,0,22,0z"/>
		<g transform="translate(26,22)">
			<circle class="st35" cx="0" cy="0" r="2.4"/>
			<ellipse class="st36" cx="0" cy="0" rx="12" ry="4.6"/>
			<ellipse transform="matrix(0.866 -0.5 0.5 0.866 0 0)" class="st36" cx="0" cy="0" rx="4.6" ry="12"/>
			<ellipse transform="matrix(0.5 -0.866 0.866 0.5 0 0)" class="st36" cx="0" cy="0" rx="12" ry="4.6"/>
		</g>
		<text transform="matrix(1 0 0 1 48 29)" class="st4 st21 st28">React</text>
	</g>
	<g transform="translate(1275,58)">
		<path class="st34" d="M22,0h106c12.2,0,22,9.8,22,22l0,0c0,12.2-9.8,22-22,22H22C9.8,44,0,34.2,0,22l0,0C0,9.8,9.8,0,22,0z"/>
		<g transform="translate(14,8)">
			<path class="st37" d="M11,0l10,4l-2,18l-8,5l-8-5L1,4L11,0z"/>
			<text transform="matrix(1 0 0 1 6.4297 20)" class="st4 st21 st38">A</text>
		</g>
		<text transform="matrix(1 0 0 1 40 29)" class="st4 st21 st28">Angular</text>
	</g>
	<g transform="translate(1329,154)">
		<path class="st39" d="M22,0h138c12.2,0,22,9.8,22,22l0,0c0,12.2-9.8,22-22,22H22C9.8,44,0,34.2,0,22l0,0C0,9.8,9.8,0,22,0z"/>
		<circle class="st40" cx="24" cy="22" r="13"/>
		<path class="st4" d="M24,12l3,7.5l7.5,2.5L27,24.5L24,32l-3-7.5L13.5,22l7.5-2.5L24,12z"/>
		<text transform="matrix(1 0 0 1 44 29)" class="st27 st21 st28">Claude Code</text>
	</g>
	<g transform="translate(1355,214)">
		<path class="st39" d="M22,0h86c12.2,0,22,9.8,22,22l0,0c0,12.2-9.8,22-22,22H22C9.8,44,0,34.2,0,22l0,0C0,9.8,9.8,0,22,0z"/>
		<circle class="st41" cx="24" cy="22" r="13"/>
		<text transform="matrix(1 0 0 1 16.3027 27)" class="st4 st33 st42">{}</text>
		<text transform="matrix(1 0 0 1 44 29)" class="st27 st21 st28">Codex</text>
	</g>
	<g transform="translate(1223,278)">
		<path class="st39" d="M22,0h170c12.2,0,22,9.8,22,22l0,0c0,12.2-9.8,22-22,22H22C9.8,44,0,34.2,0,22l0,0C0,9.8,9.8,0,22,0z"/>
		<circle class="st43" cx="24" cy="22" r="13"/>
		<g transform="translate(24,22)">
			<circle class="st44" cx="-4.5" cy="0" r="3.8"/>
			<circle class="st44" cx="4.5" cy="0" r="3.8"/>
			<path class="st44" d="M-0.7,0h1.4 M-8.3-1.3C-9.8-2.2-10.7-1.7-11,0 M8.3-1.3C9.8-2.2,10.7-1.7,11,0"/>
		</g>
		<text transform="matrix(1 0 0 1 44 29)" class="st27 st21 st28">GitHub Copilot</text>
	</g>
</g>
<g>
	<path class="st45" d="M1040,70l3,8l8,3l-8,3l-3,8l-3-8l-8-3l8-3L1040,70z"/>
	<path class="st46" d="M1520,150l3,8l8,3l-8,3l-3,8l-3-8l-8-3l8-3L1520,150z"/>
	<path class="st47" d="M970,250l3,8l8,3l-8,3l-3,8l-3-8l-8-3l8-3L970,250z"/>
</g>
<text transform="matrix(1 0 0 1 300 340)" class="st48"><tspan x="0" y="0" class="st49 st50 st51">** </tspan><tspan x="14.1" y="0" class="st49 st52 st51">For early adopters — a sneak preview of my updated online portfolio  below  just nearing completion as refinements are refining and just a few more drops of unicorn tears  needed</tspan></text>
<path class="st53" d="M321,348h1198c11.6,0,21,9.4,21,21l0,0c0,11.6-9.4,21-21,21H321c-11.6,0-21-9.4-21-21l0,0
	C300,357.4,309.4,348,321,348z"/>
<g>
	<g transform="translate(326,369)">
		<circle class="st26" cx="0" cy="0" r="11"/>
		<path class="st54" d="M-2-6.5h4c1.1,0,2,0.9,2,2v9c0,1.1-0.9,2-2,2h-4c-1.1,0-2-0.9-2-2v-9C-4-5.6-3.1-6.5-2-6.5z"/>
		<line class="st54" x1="-1.6" y1="4" x2="1.6" y2="4"/>
	</g>
	<text transform="matrix(1 0 0 1 345 375)" class="st55 st9 st56">561-212-5707</text>
	<g transform="translate(500,369)">
		<circle class="st57" cx="0" cy="0" r="11"/>
		<path class="st58" d="M-4.4-4.6h8.8C5.3-4.6,6-3.9,6-3v6c0,0.9-0.7,1.6-1.6,1.6h-8.8C-5.3,4.6-6,3.9-6,3v-6
			C-6-3.9-5.3-4.6-4.4-4.6z"/>
		<path class="st58" d="M-6-4l6,5.2L6-4"/>
	</g>
	<text transform="matrix(1 0 0 1 519 375)" class="st55 st9 st56">DavidSilverlight@gmail.com</text>
	<g transform="translate(806,369)">
		<circle class="st49" cx="0" cy="0" r="11"/>
		<g>
			<circle class="st59" cx="0" cy="0" r="7"/>
			<ellipse class="st59" cx="0" cy="0" rx="3" ry="7"/>
			<line class="st59" x1="-7" y1="0" x2="7" y2="0"/>
		</g>
	</g>
	<text transform="matrix(1 0 0 1 825 375)" class="st55 st9 st56">Online Portfolio: </text>
	<text transform="matrix(1 0 0 1 956.5342 375)" class="st49 st21 st56">https://davidsilverlight.github.io/Portfolio/</text>
</g>
</svg>
